<?xml version="1.0" encoding="UTF-8"?>
<svg id="Layer_1" data-name="Layer 1" xmlns="http://www.w3.org/2000/svg" viewBox="0 0 1080 1080">
  <defs>
    <style>
      .cls-1 {
        opacity: .2;
      }

      .cls-1, .cls-2, .cls-3, .cls-4 {
        fill: #3bbfff;
        isolation: isolate;
      }

      .cls-5, .cls-6, .cls-7 {
        opacity: .32;
      }

      .cls-5, .cls-8 {
        fill: #1fe9ef;
      }

      .cls-6, .cls-9 {
        fill: #96fffa;
      }

      .cls-2 {
        opacity: .1;
      }

      .cls-7, .cls-10 {
        fill: #b1f7ff;
      }

      .cls-11 {
        fill: #a8f4ff;
      }

      .cls-3 {
        opacity: .5;
      }

      .cls-4 {
        opacity: .3;
      }

      .cls-12 {
        fill: #a8ecff;
      }

      .cls-13 {
        fill: #565656;
      }

      .cls-14 {
        fill: #7f7c79;
      }

      .cls-15 {
        fill: #3d3737;
      }
    </style>
  </defs>
  <g>
    <path class="cls-3" d="M498.08,447.31c-36.65-18.99-411.18-290.23-407.01-298.11,3.21-6.07,441.45,146.35,478,165.55,36.55,19.19,50.15,64.42,30.6,100.9-19.5,36.64-65.09,50.7-101.59,31.66h0Z"/>
    <path class="cls-4" d="M480.75,435.56c-30.42-27.85-273.77-330.89-267.64-337.35,4.72-5.01,340.44,199.66,370.75,227.72,30.26,27.9,31.75,75,3.18,105.29-28.26,30.2-75.88,32.19-106.29,4.34h0Z"/>
    <path class="cls-4" d="M549.19,307.34c-40.41-9.2-429.96-37.7-431.89-29.15-1.48,6.72,358.24,166.25,398.64,175.46,40.36,9.05,80.43-16.33,89.48-56.69,9.25-40.25-15.98-80.37-56.23-89.62h0Z"/>
    <path class="cls-1" d="M468.38,421.27c-22.07-34.83-159.77-341.5-152.29-346.34,5.81-3.65,258.22,232.12,280.29,266.94,22.07,34.83,11.21,80.82-24.18,102.73-35.38,21.91-81.8,11.34-103.82-23.33h0Z"/>
    <path class="cls-2" d="M468.38,421.27c-22.07-34.83-43.23-310.41-35.86-315.05,5.81-3.65,141.68,201.03,163.75,235.85,22.07,34.83,11.21,80.82-24.18,102.73-35.28,21.71-81.69,11.14-103.72-23.53h0Z"/>
    <path class="cls-2" d="M530.1,305.27c-41.52,1.46-283.13,139.41-282.77,148.26.25,6.86,247.26,2.8,288.73,1.19,41.47-1.62,73.72-36.43,71.84-77.66-1.52-41.16-36.34-73.41-77.81-71.8h0Z"/>
    <path class="cls-1" d="M530.1,305.27c-41.52,1.46-374.66,61.52-374.35,70.22.25,6.86,338.8,80.69,380.47,79.19,41.47-1.62,73.72-36.43,71.84-77.66-1.52-41.16-36.49-73.36-77.96-71.75h0Z"/>
  </g>
  <g>
    <path class="cls-13" d="M638.36,974.84h-191.48c-11.12,0-17.45-12.55-11-21.61,33.1-46.48,33.1-109.84,0-156.32-6.45-9.06-.12-21.61,11-21.61h161.24c11.12,0,17.45,12.55,11,21.61-38.6,54.2-32.19,131.36,19.24,177.94"/>
    <g>
      <path class="cls-14" d="M682.71,1019.19h-310.41c-12.19,0-22.17-9.98-22.17-22.17s9.98-22.17,22.17-22.17h310.41c12.19,0,22.17,9.98,22.17,22.17s-9.98,22.17-22.17,22.17"/>
      <path class="cls-14" d="M849,609h-430.87c-13.07,0-23.66,10.59-23.66,23.66v19.19c0,13.07,10.59,23.66,23.66,23.66h400.2c10.3,0,19.38-6.67,22.55-16.47,5.12-15.8,8.12-32.93,8.12-50.05"/>
      <path class="cls-14" d="M608.99,813.97c3.94-7.65,8.43-14.84,13.72-21.67s.36-17.01-8.4-17.01h-173.28c-8.86,0-13.8,10.23-8.28,17.16,5.32,6.69,9.83,13.71,13.41,21.18,1.76,3.67,5.46,6,9.53,6h143.94c3.93,0,7.57-2.17,9.37-5.67Z"/>
    </g>
    <path class="cls-15" d="M394.47,696.6v57.61c0,11.64,9.44,21.08,21.08,21.08h267.16c54.63,0,102.26-25.91,132.31-66.05,10.41-13.9.49-33.73-16.88-33.73h-382.58c-11.64,0-21.08,9.44-21.08,21.08Z"/>
  </g>
  <polygon class="cls-8" points="765 598.88 950.09 459.98 917.09 462.67 990.36 370.18 836.4 472.13 869.39 469.44 765 598.89 765 598.88"/>
  <polygon class="cls-10" points="796.24 603.3 952.9 575.15 931.71 563.66 999.06 525.31 879.1 537.69 900.28 549.18 796.24 603.3 796.24 603.3"/>
  <polygon class="cls-11" points="485.44 490.71 146.12 636 125.19 587.1 464.5 441.81 485.44 490.71"/>
  <path d="M679,471.26c14.69,34.31-1.21,74.03-35.52,88.73l-65.58,28.08c-11.82,5.06-24.62,4.84-35.72.4-11.09-4.44-20.49-13.11-25.55-24.93l-8.65-20.2c-4.54-10.61-16.83-15.53-27.44-10.99l-336.82,144.23c-4.61,1.98-9.59,1.9-13.92.16-4.31-1.73-7.97-5.1-9.95-9.72l-27.02-63.11c-8.5-19.84.7-42.81,20.54-51.31l317.6-136c10.61-4.54,15.53-16.83,10.99-27.44l-19.86-46.39c-3.95-9.23.33-19.91,9.55-23.87l82.31-35.26c5.58-2.38,12-1.82,17.1,1.5l90.12,58.8c3.01,1.97,5.36,4.77,6.78,8.07l51.05,119.22ZM648.4,518.35c5.22-2.25,7.65-8.33,5.43-13.55l-54.64-127.56c-1.62-3.79-4.33-7.02-7.79-9.27l-62.71-40.93c-5.85-3.82-13.23-4.46-19.66-1.71l-27.17,11.64c-10.61,4.55-15.53,16.83-10.98,27.44l79.16,184.83c2.22,5.23,8.3,7.66,13.54,5.42l84.81-36.3ZM165.33,627.77l300.89-128.83c10.61-4.54,15.53-16.83,10.99-27.44l-4.49-10.48c-4.54-10.61-16.83-15.53-27.44-10.99l-300.89,128.84c-10.61,4.54-15.53,16.83-10.99,27.44l4.48,10.47c4.54,10.61,16.83,15.54,27.44,10.99Z"/>
  <path class="cls-11" d="M653.83,504.79c2.22,5.23-.21,11.31-5.43,13.55l-84.81,36.3c-5.23,2.24-11.31-.19-13.54-5.42l-79.19-184.89c-4.53-10.58.37-22.82,10.95-27.35l27.26-11.68c6.41-2.74,13.76-2.1,19.59,1.7l62.75,40.96c3.44,2.25,6.14,5.46,7.76,9.24l54.64,127.58Z"/>
  <path class="cls-12" d="M911.11,0H168.89C75.62,0,0,75.62,0,168.89v742.21c0,93.28,75.62,168.89,168.89,168.89h742.21c93.28,0,168.89-75.62,168.89-168.89V168.89c0-93.28-75.62-168.89-168.89-168.89ZM1019,850.11c0,93.27-75.62,168.89-168.89,168.89H229.89c-93.27,0-168.89-75.62-168.89-168.89V229.89c0-93.27,75.62-168.89,168.89-168.89h620.22c93.27,0,168.89,75.62,168.89,168.89v620.22Z"/>
  <polygon class="cls-9" points="754.31 582.69 830.98 414.53 809.36 429.77 823.69 344.27 758.21 469.21 783.98 463.55 754.31 582.69 754.31 582.69"/>
  <polygon class="cls-10" points="797.24 603.28 953.9 575.13 932.71 563.64 1000.06 525.29 880.1 537.67 901.28 549.16 797.24 603.28 797.24 603.28"/>
  <polygon class="cls-6" points="846.62 399.41 814.94 421.17 836.54 299.98 739.97 477.43 777.61 469.21 746 603 846.62 399.41"/>
  <polygon class="cls-5" points="759 606 964.33 455.91 928 458 1012 351 819 479 858 475 759 606 759 606"/>
  <polygon class="cls-7" points="784 608 964 577 939 563 1012 521 874.11 536.92 895.29 548.41 784 608 784 608"/>
</svg>