<?xml version="1.0" encoding="UTF-8"?>
<svg id="Layer_1" data-name="Layer 1" xmlns="http://www.w3.org/2000/svg" xmlns:xlink="http://www.w3.org/1999/xlink" viewBox="0 0 1040.92 882.32">
  <defs>
    <style>
      .cls-1 {
        fill: url(#linear-gradient);
      }

      .cls-2 {
        fill: url(#purpleish);
      }
    </style>
    <linearGradient id="purpleish" x1="0" y1="490.56" x2="504.94" y2="490.56" gradientUnits="userSpaceOnUse">
      <stop offset="0" stop-color="#6958f1"/>
      <stop offset="1" stop-color="#f80980"/>
    </linearGradient>
    <linearGradient id="linear-gradient" x1="289.9" y1="441.16" x2="1040.92" y2="441.16" gradientUnits="userSpaceOnUse">
      <stop offset="0" stop-color="#91fd9d"/>
      <stop offset="1" stop-color="#00c9fe"/>
    </linearGradient>
  </defs>
  <path class="cls-2" d="M504.94,584.63H168.31v249.73c0,26.49-21.48,47.97-47.97,47.97H0V157.4c0-32.36,26.24-58.6,58.6-58.6h109.71v292.16l167.5-126.01,169.12,126.01"/>
  <path class="cls-1" d="M1005.85,448.51h-331.91c.04-13.26.79-238.65.79-238.65,0-1.43,33.88-15.68,35.61-18.16,21.81-31.33,112.42-34.24,136.02-2.31,49.33,20.16,119.79,24.83,171.07,21.42,14.26-1.6,19-11.96,20.46-24.51,4.04-34.75,4.02-126.01,0-160.79-1.24-10.77-5.77-22.44-18.24-24.32-50.86-3.51-121.34-.1-169.91,21.06-21.16,33.25-102.57,29.69-124.01-2.31-4.41-6.59-30.62-15.93-38.97-17.65-170.62-5.94-348.9-12.23-396.86,191.05,44.55-33.79,152.23-83.71,201.55-39.71,14.63,32.81,13.49,336.45,13.49,336.45v357.2c0,19.35,15.68,35.03,35.03,35.03h98.26c19.35,0,35.03-15.68,35.03-35.03l3.18-210.07c0-19.35,12.5-38.21,31.85-38.21h297.57c19.35,0,35.03-15.68,35.03-35.03v-80.45c0-19.35-15.68-35.03-35.03-35.03Z"/>
</svg>