<?xml version="1.0" encoding="UTF-8"?>
<svg id="Layer_1" data-name="Layer 1" xmlns="http://www.w3.org/2000/svg" viewBox="0 0 1040.25 889.5" fill="currentColor">
  <path d="M168.31,105.98v292.16l167.5-126.01,169.12,126.01V105.98h168.31v747.64c0,19.82-16.07,35.88-35.88,35.88h-99.73c-18.06,0-32.7-14.64-32.7-32.7v-264.99H168.31v249.73c0,26.49-21.48,47.97-47.97,47.97H0V164.58c0-32.36,26.24-58.6,58.6-58.6h109.71Z"/>
  <path d="M1040.25,490.72v80.45c0,19.35-15.68,35.03-35.03,35.03h-297.57c-19.35,0-35.03,15.68-35.03,35.03v213.25c0,19.35-15.68,35.03-35.03,35.03h-98.26c-19.35,0-35.03-15.68-35.03-35.03v-363.76c0-19.35,15.68-35.03,35.03-35.03h465.89c19.35,0,35.03,15.68,35.03,35.03Z"/>
  <path d="M672.81,340.43h-167.88l-.88-136.32c0-12.04-3.86-41.9-13.29-50.32-49.32-44-156.99,5.93-201.54,39.71,12.6-68.77,63.6-134.67,127.8-166.64C499.87-14.4,596.42,8.15,686.09,2.45c8.35,1.74,34.56,11.08,38.97,17.66,21.44,32,102.85,35.56,124.01,2.31,3.55-5.58,74.8-19.6,78.68-20.9,27.9,2.31,64.44-4.21,91.23-.16,12.47,1.88,17,13.55,18.24,24.32,4.02,34.78,4.04,126.03,0,160.79-1.46,12.55-6.2,22.91-20.46,24.51-27.38,3.07-60.92-2.11-89-.36-3.51-1.16-78.5-16.23-82.07-21.06-23.6-31.93-114.2-29.02-136.02,2.31-1.73,2.48-35.61,16.73-35.61,18.16l-1.25,130.42Z"/>
</svg>